<svg width="217" height="36" viewBox="0 0 217 36" fill="none" xmlns="http://www.w3.org/2000/svg">
<rect width="217" height="36" rx="18" fill="url(#paint0_radial_306_23239)"/>
<rect x="0.25" y="0.25" width="216.5" height="35.5" rx="17.75" stroke="url(#paint1_linear_306_23239)" stroke-opacity="0.3" stroke-width="0.5"/>
<rect x="0.25" y="0.25" width="216.5" height="35.5" rx="17.75" stroke="url(#paint2_linear_306_23239)" stroke-opacity="0.3" stroke-width="0.5"/>
<path opacity="0.5" d="M20.1269 13.2H21.5479L25.1109 23H23.8649L23.1369 20.998H18.5379L17.8169 23H16.5639L20.1269 13.2ZM18.9719 19.822H22.7029L20.8339 14.705L18.9719 19.822ZM32.0492 26.5H30.8732V16H32.0492V17.197C32.2872 16.7863 32.6045 16.455 33.0012 16.203C33.3979 15.9463 33.8692 15.818 34.4152 15.818C34.9239 15.818 35.3999 15.9137 35.8432 16.105C36.2912 16.2963 36.6832 16.5623 37.0192 16.903C37.3552 17.239 37.6189 17.6287 37.8102 18.072C38.0015 18.5153 38.0972 18.9913 38.0972 19.5C38.0972 20.0087 38.0015 20.487 37.8102 20.935C37.6189 21.383 37.3552 21.7773 37.0192 22.118C36.6832 22.454 36.2912 22.7177 35.8432 22.909C35.3999 23.1003 34.9239 23.196 34.4152 23.196C33.8692 23.196 33.3979 23.07 33.0012 22.818C32.6045 22.5613 32.2872 22.2277 32.0492 21.817V26.5ZM34.4012 16.959C33.9485 16.959 33.5519 17.0733 33.2112 17.302C32.8705 17.5307 32.6069 17.8363 32.4202 18.219C32.2382 18.6017 32.1472 19.0287 32.1472 19.5C32.1472 19.9667 32.2382 20.3937 32.4202 20.781C32.6069 21.1683 32.8682 21.4763 33.2042 21.705C33.5449 21.9337 33.9439 22.048 34.4012 22.048C34.8539 22.048 35.2692 21.936 35.6472 21.712C36.0252 21.4833 36.3285 21.1777 36.5572 20.795C36.7859 20.4077 36.9002 19.976 36.9002 19.5C36.9002 19.0333 36.7882 18.6087 36.5642 18.226C36.3402 17.8387 36.0392 17.5307 35.6612 17.302C35.2832 17.0733 34.8632 16.959 34.4012 16.959ZM39.7677 23V16H40.9437V16.875C41.1911 16.5483 41.5037 16.2893 41.8817 16.098C42.2597 15.902 42.6704 15.804 43.1137 15.804C43.3844 15.804 43.6457 15.839 43.8977 15.909L43.4217 17.085C43.2304 17.0243 43.0437 16.994 42.8617 16.994C42.5117 16.994 42.1897 17.0803 41.8957 17.253C41.6064 17.421 41.3754 17.6497 41.2027 17.939C41.0301 18.2283 40.9437 18.5503 40.9437 18.905V23H39.7677ZM47.9825 23.182C47.3385 23.182 46.7505 23.0163 46.2185 22.685C45.6912 22.3537 45.2688 21.9103 44.9515 21.355C44.6388 20.795 44.4825 20.1767 44.4825 19.5C44.4825 18.9867 44.5735 18.5083 44.7555 18.065C44.9375 17.617 45.1872 17.225 45.5045 16.889C45.8265 16.5483 46.1998 16.2823 46.6245 16.091C47.0492 15.8997 47.5018 15.804 47.9825 15.804C48.6265 15.804 49.2122 15.9697 49.7395 16.301C50.2715 16.6323 50.6938 17.078 51.0065 17.638C51.3238 18.198 51.4825 18.8187 51.4825 19.5C51.4825 20.0087 51.3915 20.4847 51.2095 20.928C51.0275 21.3713 50.7755 21.7633 50.4535 22.104C50.1362 22.44 49.7652 22.7037 49.3405 22.895C48.9205 23.0863 48.4678 23.182 47.9825 23.182ZM47.9825 22.006C48.4212 22.006 48.8155 21.8917 49.1655 21.663C49.5202 21.4297 49.7978 21.124 49.9985 20.746C50.2038 20.3633 50.3065 19.948 50.3065 19.5C50.3065 19.0427 50.2015 18.6227 49.9915 18.24C49.7862 17.8573 49.5085 17.5517 49.1585 17.323C48.8085 17.0943 48.4165 16.98 47.9825 16.98C47.5438 16.98 47.1495 17.0967 46.7995 17.33C46.4495 17.5587 46.1718 17.8643 45.9665 18.247C45.7612 18.6297 45.6585 19.0473 45.6585 19.5C45.6585 19.9667 45.7635 20.3913 45.9735 20.774C46.1835 21.152 46.4658 21.453 46.8205 21.677C47.1752 21.8963 47.5625 22.006 47.9825 22.006ZM58.7348 12.5H59.9108V23H58.7348V21.81C58.4968 22.2207 58.1771 22.552 57.7758 22.804C57.3744 23.056 56.9031 23.182 56.3618 23.182C55.8531 23.182 55.3771 23.0863 54.9338 22.895C54.4904 22.7037 54.0984 22.44 53.7578 22.104C53.4218 21.7633 53.1581 21.3713 52.9668 20.928C52.7754 20.4847 52.6798 20.0087 52.6798 19.5C52.6798 18.9913 52.7754 18.5153 52.9668 18.072C53.1581 17.624 53.4218 17.232 53.7578 16.896C54.0984 16.5553 54.4904 16.2893 54.9338 16.098C55.3771 15.9067 55.8531 15.811 56.3618 15.811C56.9031 15.811 57.3744 15.937 57.7758 16.189C58.1771 16.441 58.4968 16.7723 58.7348 17.183V12.5ZM56.3758 22.041C56.8378 22.041 57.2368 21.929 57.5728 21.705C57.9134 21.4763 58.1748 21.1683 58.3568 20.781C58.5434 20.3937 58.6368 19.9667 58.6368 19.5C58.6368 19.024 58.5434 18.5947 58.3568 18.212C58.1701 17.8247 57.9064 17.519 57.5658 17.295C57.2298 17.0663 56.8331 16.952 56.3758 16.952C55.9138 16.952 55.4938 17.0663 55.1158 17.295C54.7424 17.5237 54.4438 17.8317 54.2198 18.219C53.9958 18.6017 53.8838 19.0287 53.8838 19.5C53.8838 19.9713 53.9981 20.4007 54.2268 20.788C54.4554 21.1707 54.7588 21.4763 55.1368 21.705C55.5148 21.929 55.9278 22.041 56.3758 22.041ZM61.81 20.34V16H62.986V20.081C62.986 20.4357 63.0723 20.7577 63.245 21.047C63.4177 21.3363 63.6487 21.5673 63.938 21.74C64.232 21.908 64.554 21.992 64.904 21.992C65.2587 21.992 65.5783 21.908 65.863 21.74C66.1523 21.5673 66.3833 21.3363 66.556 21.047C66.7287 20.7577 66.815 20.4357 66.815 20.081V16H67.991L67.998 23H66.822L66.815 22.111C66.5677 22.4377 66.255 22.699 65.877 22.895C65.499 23.0863 65.0907 23.182 64.652 23.182C64.1293 23.182 63.651 23.056 63.217 22.804C62.7877 22.5473 62.4447 22.2043 62.188 21.775C61.936 21.3457 61.81 20.8673 61.81 20.34ZM74.6591 21.152L75.7091 21.719C75.3918 22.1623 74.9881 22.517 74.4981 22.783C74.0128 23.049 73.4854 23.182 72.9161 23.182C72.2721 23.182 71.6841 23.0163 71.1521 22.685C70.6248 22.3537 70.2024 21.9103 69.8851 21.355C69.5724 20.795 69.4161 20.1767 69.4161 19.5C69.4161 18.9867 69.5071 18.5083 69.6891 18.065C69.8711 17.617 70.1208 17.225 70.4381 16.889C70.7601 16.5483 71.1334 16.2823 71.5581 16.091C71.9828 15.8997 72.4354 15.804 72.9161 15.804C73.4854 15.804 74.0128 15.937 74.4981 16.203C74.9881 16.469 75.3918 16.826 75.7091 17.274L74.6591 17.841C74.4351 17.5657 74.1691 17.3533 73.8611 17.204C73.5531 17.0547 73.2381 16.98 72.9161 16.98C72.4821 16.98 72.0878 17.0967 71.7331 17.33C71.3831 17.5587 71.1054 17.8643 70.9001 18.247C70.6948 18.6297 70.5921 19.0473 70.5921 19.5C70.5921 19.9527 70.6948 20.3703 70.9001 20.753C71.1101 21.131 71.3901 21.4343 71.7401 21.663C72.0948 21.8917 72.4868 22.006 72.9161 22.006C73.2614 22.006 73.5858 21.9267 73.8891 21.768C74.1924 21.6093 74.4491 21.404 74.6591 21.152ZM81.0988 17.176H79.5098L79.5028 23H78.3268L78.3338 17.176H77.1298V16H78.3338L78.3268 13.802H79.5028L79.5098 16H81.0988V17.176ZM89.797 23.182C89.153 23.182 88.565 23.0163 88.033 22.685C87.5056 22.3537 87.0833 21.9103 86.766 21.355C86.4533 20.795 86.297 20.1767 86.297 19.5C86.297 18.9867 86.388 18.5083 86.57 18.065C86.752 17.617 87.0016 17.225 87.319 16.889C87.641 16.5483 88.0143 16.2823 88.439 16.091C88.8636 15.8997 89.3163 15.804 89.797 15.804C90.441 15.804 91.0266 15.9697 91.554 16.301C92.086 16.6323 92.5083 17.078 92.821 17.638C93.1383 18.198 93.297 18.8187 93.297 19.5C93.297 20.0087 93.206 20.4847 93.024 20.928C92.842 21.3713 92.59 21.7633 92.268 22.104C91.9506 22.44 91.5796 22.7037 91.155 22.895C90.735 23.0863 90.2823 23.182 89.797 23.182ZM89.797 22.006C90.2356 22.006 90.63 21.8917 90.98 21.663C91.3346 21.4297 91.6123 21.124 91.813 20.746C92.0183 20.3633 92.121 19.948 92.121 19.5C92.121 19.0427 92.016 18.6227 91.806 18.24C91.6006 17.8573 91.323 17.5517 90.973 17.323C90.623 17.0943 90.231 16.98 89.797 16.98C89.3583 16.98 88.964 17.0967 88.614 17.33C88.264 17.5587 87.9863 17.8643 87.781 18.247C87.5756 18.6297 87.473 19.0473 87.473 19.5C87.473 19.9667 87.578 20.3913 87.788 20.774C87.998 21.152 88.2803 21.453 88.635 21.677C88.9896 21.8963 89.377 22.006 89.797 22.006ZM96.6399 14.271V16H98.6909V17.176H96.6399V23H95.4639V17.176H94.5609V16H95.4639V14.271C95.4639 13.9117 95.5503 13.5873 95.7229 13.298C95.9003 13.004 96.1359 12.7707 96.4299 12.598C96.7286 12.4207 97.0553 12.332 97.4099 12.332C97.6713 12.332 97.9256 12.3857 98.1729 12.493C98.4203 12.5957 98.6396 12.7497 98.8309 12.955L97.9909 13.788C97.9256 13.6993 97.8393 13.6317 97.7319 13.585C97.6293 13.5337 97.5219 13.508 97.4099 13.508C97.1999 13.508 97.0179 13.5827 96.8639 13.732C96.7146 13.8813 96.6399 14.061 96.6399 14.271Z" fill="white"/>
<path d="M107 18.0589C107 22.8236 110.107 26 113.393 26C115.685 26 116.72 24.6438 116.72 24.6438C116.72 24.6438 113.594 22.4617 113.594 18.0589C113.594 13.6964 116.855 11.5994 116.855 11.5994C116.855 11.5994 115.685 10.1179 113.393 10.1179C110.107 10.1179 107 13.3345 107 18.0589Z" fill="#1DA1F2"/>
<path d="M116.59 10.0993C116.59 10.0993 120.188 11.0844 120.41 16.3315H125.436C125.436 16.3315 125.013 9.07402 116.59 10.0993Z" fill="white"/>
<path d="M116.59 25.8804C116.59 25.8804 120.188 24.0108 120.41 18.7636H125.436C125.436 18.7636 125.013 26.9057 116.59 25.8804Z" fill="url(#paint3_linear_306_23239)"/>
<path d="M139.465 16.2924H137.553C137.498 15.9788 137.398 15.701 137.251 15.4589C137.105 15.2135 136.922 15.0055 136.704 14.835C136.486 14.6646 136.237 14.5368 135.958 14.4515C135.681 14.3629 135.383 14.3186 135.063 14.3186C134.493 14.3186 133.989 14.4618 133.549 14.7481C133.109 15.0311 132.765 15.447 132.516 15.9958C132.267 16.5413 132.143 17.2078 132.143 17.9953C132.143 18.7964 132.267 19.4714 132.516 20.0203C132.768 20.5658 133.113 20.9783 133.549 21.2578C133.989 21.5339 134.492 21.672 135.058 21.672C135.371 21.672 135.664 21.6311 135.937 21.5493C136.213 21.4641 136.46 21.3396 136.679 21.176C136.9 21.0123 137.086 20.8112 137.236 20.5726C137.389 20.3339 137.495 20.0612 137.553 19.7544L139.465 19.7646C139.394 20.2623 139.239 20.7294 139 21.1658C138.765 21.6021 138.456 21.9873 138.075 22.3214C137.693 22.6521 137.246 22.9112 136.735 23.0987C136.223 23.2828 135.656 23.3749 135.032 23.3749C134.112 23.3749 133.29 23.1618 132.567 22.7356C131.844 22.3095 131.275 21.6942 130.859 20.8896C130.443 20.0851 130.235 19.1203 130.235 17.9953C130.235 16.8669 130.445 15.9021 130.864 15.101C131.284 14.2964 131.855 13.6811 132.577 13.2549C133.3 12.8288 134.118 12.6157 135.032 12.6157C135.615 12.6157 136.157 12.6975 136.658 12.8612C137.159 13.0248 137.606 13.2652 137.998 13.5822C138.39 13.8958 138.712 14.2811 138.964 14.7379C139.22 15.1913 139.387 15.7095 139.465 16.2924Z" fill="white"/>
<path d="M144.547 23.3851C143.78 23.3851 143.115 23.2163 142.553 22.8788C141.99 22.5413 141.554 22.0692 141.244 21.4623C140.937 20.8555 140.784 20.1464 140.784 19.3351C140.784 18.5237 140.937 17.8129 141.244 17.2027C141.554 16.5924 141.99 16.1186 142.553 15.7811C143.115 15.4436 143.78 15.2748 144.547 15.2748C145.314 15.2748 145.979 15.4436 146.542 15.7811C147.104 16.1186 147.539 16.5924 147.846 17.2027C148.156 17.8129 148.311 18.5237 148.311 19.3351C148.311 20.1464 148.156 20.8555 147.846 21.4623C147.539 22.0692 147.104 22.5413 146.542 22.8788C145.979 23.2163 145.314 23.3851 144.547 23.3851ZM144.557 21.9021C144.973 21.9021 145.321 21.7879 145.601 21.5595C145.88 21.3277 146.088 21.0175 146.224 20.6288C146.364 20.2402 146.434 19.8072 146.434 19.33C146.434 18.8493 146.364 18.4146 146.224 18.026C146.088 17.6339 145.88 17.322 145.601 17.0902C145.321 16.8584 144.973 16.7424 144.557 16.7424C144.131 16.7424 143.777 16.8584 143.494 17.0902C143.214 17.322 143.005 17.6339 142.865 18.026C142.728 18.4146 142.66 18.8493 142.66 19.33C142.66 19.8072 142.728 20.2402 142.865 20.6288C143.005 21.0175 143.214 21.3277 143.494 21.5595C143.777 21.7879 144.131 21.9021 144.557 21.9021Z" fill="white"/>
<path d="M151.733 18.6294V23.2317H149.882V15.3771H151.651V16.7118H151.743C151.924 16.272 152.212 15.9226 152.608 15.6635C153.006 15.4044 153.499 15.2748 154.085 15.2748C154.627 15.2748 155.1 15.3907 155.502 15.6226C155.908 15.8544 156.221 16.1902 156.443 16.6299C156.668 17.0697 156.779 17.6032 156.775 18.2305V23.2317H154.924V18.5169C154.924 17.9919 154.788 17.5811 154.515 17.2845C154.246 16.9879 153.872 16.8396 153.395 16.8396C153.071 16.8396 152.783 16.9112 152.531 17.0544C152.282 17.1941 152.086 17.397 151.943 17.6629C151.803 17.9288 151.733 18.251 151.733 18.6294Z" fill="white"/>
<path d="M163.418 18.1078V19.6317H158.703V18.1078H163.418Z" fill="white"/>
<path d="M174.411 16.2924H172.498C172.444 15.9788 172.343 15.701 172.197 15.4589C172.05 15.2135 171.868 15.0055 171.65 14.835C171.431 14.6646 171.183 14.5368 170.903 14.4515C170.627 14.3629 170.329 14.3186 170.008 14.3186C169.439 14.3186 168.934 14.4618 168.494 14.7481C168.055 15.0311 167.71 15.447 167.461 15.9958C167.213 16.5413 167.088 17.2078 167.088 17.9953C167.088 18.7964 167.213 19.4714 167.461 20.0203C167.714 20.5658 168.058 20.9783 168.494 21.2578C168.934 21.5339 169.437 21.672 170.003 21.672C170.317 21.672 170.61 21.6311 170.883 21.5493C171.159 21.4641 171.406 21.3396 171.624 21.176C171.846 21.0123 172.031 20.8112 172.181 20.5726C172.335 20.3339 172.44 20.0612 172.498 19.7544L174.411 19.7646C174.339 20.2623 174.184 20.7294 173.946 21.1658C173.71 21.6021 173.402 21.9873 173.02 22.3214C172.638 22.6521 172.192 22.9112 171.68 23.0987C171.169 23.2828 170.601 23.3749 169.977 23.3749C169.057 23.3749 168.235 23.1618 167.513 22.7356C166.79 22.3095 166.221 21.6942 165.805 20.8896C165.389 20.0851 165.181 19.1203 165.181 17.9953C165.181 16.8669 165.39 15.9021 165.81 15.101C166.229 14.2964 166.8 13.6811 167.523 13.2549C168.246 12.8288 169.064 12.6157 169.977 12.6157C170.56 12.6157 171.102 12.6975 171.604 12.8612C172.105 13.0248 172.551 13.2652 172.943 13.5822C173.335 13.8958 173.658 14.2811 173.91 14.7379C174.165 15.1913 174.333 15.7095 174.411 16.2924Z" fill="white"/>
<path d="M181.073 19.9282V15.3771H182.924V23.2317H181.129V21.8356H181.047C180.87 22.2754 180.578 22.6351 180.173 22.9146C179.77 23.1942 179.274 23.3339 178.685 23.3339C178.17 23.3339 177.715 23.2197 177.319 22.9913C176.927 22.7595 176.62 22.4237 176.399 21.9839C176.177 21.5408 176.066 21.0055 176.066 20.3783V15.3771H177.918V20.0919C177.918 20.5896 178.054 20.9851 178.327 21.2783C178.599 21.5714 178.957 21.718 179.401 21.718C179.673 21.718 179.938 21.6516 180.193 21.5186C180.449 21.3856 180.659 21.1879 180.822 20.9254C180.989 20.6595 181.073 20.3271 181.073 19.9282Z" fill="white"/>
<path d="M184.909 23.2317V12.7589H186.76V16.676H186.837C186.933 16.4851 187.067 16.2822 187.241 16.0674C187.415 15.8493 187.65 15.6635 187.947 15.5101C188.243 15.3532 188.622 15.2748 189.082 15.2748C189.689 15.2748 190.236 15.4299 190.724 15.7402C191.214 16.047 191.603 16.5021 191.889 17.1055C192.179 17.7055 192.324 18.4419 192.324 19.3146C192.324 20.1771 192.183 20.9101 191.9 21.5135C191.617 22.1169 191.231 22.5771 190.744 22.8942C190.256 23.2112 189.704 23.3697 189.087 23.3697C188.637 23.3697 188.264 23.2947 187.967 23.1447C187.671 22.9947 187.432 22.8141 187.251 22.6027C187.074 22.3879 186.936 22.1851 186.837 21.9942H186.73V23.2317H184.909ZM186.725 19.3044C186.725 19.8123 186.796 20.2572 186.939 20.639C187.086 21.0209 187.296 21.3192 187.568 21.5339C187.845 21.7453 188.179 21.851 188.571 21.851C188.98 21.851 189.322 21.7419 189.598 21.5237C189.875 21.3021 190.083 21.0004 190.222 20.6186C190.366 20.2334 190.437 19.7953 190.437 19.3044C190.437 18.8169 190.367 18.3839 190.227 18.0055C190.088 17.6271 189.88 17.3305 189.604 17.1157C189.327 16.901 188.983 16.7936 188.571 16.7936C188.175 16.7936 187.839 16.8976 187.563 17.1055C187.287 17.3135 187.077 17.6049 186.934 17.9799C186.795 18.3549 186.725 18.7964 186.725 19.3044Z" fill="white"/>
<path d="M197.375 23.3851C196.588 23.3851 195.907 23.2214 195.335 22.8942C194.765 22.5635 194.327 22.0964 194.021 21.493C193.714 20.8862 193.56 20.172 193.56 19.3504C193.56 18.5424 193.714 17.8334 194.021 17.2231C194.331 16.6095 194.764 16.1322 195.319 15.7913C195.875 15.447 196.528 15.2748 197.278 15.2748C197.762 15.2748 198.219 15.3532 198.648 15.5101C199.081 15.6635 199.463 15.9021 199.794 16.226C200.128 16.5498 200.39 16.9623 200.581 17.4635C200.772 17.9612 200.868 18.5544 200.868 19.243V19.8106H194.43V18.5629H199.093C199.09 18.2084 199.013 17.893 198.863 17.6169C198.713 17.3373 198.504 17.1174 198.234 16.9572C197.968 16.797 197.658 16.7169 197.304 16.7169C196.925 16.7169 196.593 16.8089 196.306 16.993C196.02 17.1737 195.797 17.4123 195.636 17.7089C195.48 18.0021 195.4 18.3243 195.396 18.6754V19.7646C195.396 20.2214 195.48 20.6135 195.647 20.9408C195.814 21.2646 196.047 21.5135 196.347 21.6873C196.647 21.8578 196.998 21.943 197.401 21.943C197.67 21.943 197.914 21.9055 198.132 21.8305C198.35 21.7521 198.539 21.6379 198.7 21.4879C198.86 21.3379 198.981 21.1521 199.063 20.9305L200.791 21.1248C200.682 21.5817 200.474 21.9805 200.167 22.3214C199.864 22.6589 199.475 22.9214 199.001 23.1089C198.527 23.293 197.985 23.3851 197.375 23.3851Z" fill="white"/>
<defs>
<radialGradient id="paint0_radial_306_23239" cx="0" cy="0" r="1" gradientUnits="userSpaceOnUse" gradientTransform="translate(108.5) rotate(90) scale(84.96 512.12)">
<stop stop-color="#191D2B"/>
<stop offset="1" stop-color="#090D14"/>
</radialGradient>
<linearGradient id="paint1_linear_306_23239" x1="108.5" y1="-15" x2="108.5" y2="36" gradientUnits="userSpaceOnUse">
<stop stop-color="#C9DEFF"/>
<stop offset="0.370712" stop-color="#C9DEFF" stop-opacity="0"/>
</linearGradient>
<linearGradient id="paint2_linear_306_23239" x1="108.5" y1="-15" x2="108.5" y2="51.48" gradientUnits="userSpaceOnUse">
<stop offset="0.644496" stop-color="#C9DEFF" stop-opacity="0"/>
<stop offset="1" stop-color="#C9DEFF"/>
</linearGradient>
<linearGradient id="paint3_linear_306_23239" x1="116.59" y1="25.9697" x2="116.59" y2="18.7636" gradientUnits="userSpaceOnUse">
<stop stop-color="#40DF9F"/>
<stop offset="1" stop-color="#3ED598"/>
</linearGradient>
</defs>
</svg>
