<svg width="428" height="350" viewBox="0 0 428 350" fill="none" xmlns="http://www.w3.org/2000/svg">
<g clip-path="url(#clip0_306_23202)">
<g opacity="0.2">
<g filter="url(#filter0_f_306_23202)">
<path fill-rule="evenodd" clip-rule="evenodd" d="M175.925 158.617H192.643L219.104 124.976V145.386H235.925L251.881 125.101C245.036 113.598 232.472 105.847 218.186 105.847H215.099C193.553 105.847 175.925 123.475 175.925 145.02V158.617H175.925Z" fill="url(#paint0_linear_306_23202)"/>
<path fill-rule="evenodd" clip-rule="evenodd" d="M252.642 145.384H235.923L209.463 179.023V158.614H192.642L176.687 178.899C183.531 190.402 196.095 198.152 210.381 198.152H213.469C235.015 198.152 252.642 180.525 252.642 158.979V145.384H252.642Z" fill="url(#paint1_linear_306_23202)"/>
<path fill-rule="evenodd" clip-rule="evenodd" d="M219.103 124.978V158.618H192.643L219.103 124.978Z" fill="white"/>
<path fill-rule="evenodd" clip-rule="evenodd" d="M209.461 179.023V145.384H235.922L209.461 179.023Z" fill="white"/>
</g>
<g filter="url(#filter1_f_306_23202)">
<path fill-rule="evenodd" clip-rule="evenodd" d="M175.925 158.617H192.643L219.104 124.976V145.386H235.925L251.881 125.101C245.036 113.598 232.472 105.847 218.186 105.847H215.099C193.553 105.847 175.925 123.475 175.925 145.02V158.617H175.925Z" fill="url(#paint2_linear_306_23202)"/>
<path fill-rule="evenodd" clip-rule="evenodd" d="M252.642 145.384H235.923L209.463 179.023V158.614H192.642L176.687 178.899C183.531 190.402 196.095 198.152 210.381 198.152H213.469C235.015 198.152 252.642 180.525 252.642 158.979V145.384H252.642Z" fill="url(#paint3_linear_306_23202)"/>
<path fill-rule="evenodd" clip-rule="evenodd" d="M219.103 124.978V158.618H192.643L219.103 124.978Z" fill="white"/>
<path fill-rule="evenodd" clip-rule="evenodd" d="M209.461 179.023V145.384H235.922L209.461 179.023Z" fill="white"/>
</g>
<g filter="url(#filter2_f_306_23202)">
<path fill-rule="evenodd" clip-rule="evenodd" d="M175.925 158.617H192.643L219.104 124.976V145.386H235.925L251.881 125.101C245.036 113.598 232.472 105.847 218.186 105.847H215.099C193.553 105.847 175.925 123.475 175.925 145.02V158.617H175.925Z" fill="url(#paint4_linear_306_23202)"/>
<path fill-rule="evenodd" clip-rule="evenodd" d="M252.642 145.384H235.923L209.463 179.023V158.614H192.642L176.687 178.899C183.531 190.402 196.095 198.152 210.381 198.152H213.469C235.015 198.152 252.642 180.525 252.642 158.979V145.384H252.642Z" fill="url(#paint5_linear_306_23202)"/>
<path fill-rule="evenodd" clip-rule="evenodd" d="M219.103 124.978V158.618H192.643L219.103 124.978Z" fill="white"/>
<path fill-rule="evenodd" clip-rule="evenodd" d="M209.461 179.023V145.384H235.922L209.461 179.023Z" fill="white"/>
</g>
</g>
<path fill-rule="evenodd" clip-rule="evenodd" d="M175.925 158.617H192.643L219.104 124.976V145.386H235.925L251.881 125.101C245.036 113.598 232.472 105.847 218.186 105.847H215.099C193.553 105.847 175.925 123.475 175.925 145.02L175.925 158.617Z" fill="url(#paint6_linear_306_23202)"/>
<path opacity="0.1" d="M164.578 151.422L164.579 136.283C164.579 111.696 184.697 91.5775 209.284 91.5775H212.853C229.012 91.5775 243.245 100.269 251.102 113.213L233.078 136.127H214.492V113.112V111.443L213.46 112.755L183.045 151.422H164.578Z" stroke="url(#paint7_radial_306_23202)" stroke-width="1.15597"/>
<path opacity="0.1" d="M264.225 148.578L264.224 163.716C264.224 188.303 244.106 208.422 219.519 208.422H215.949C199.791 208.422 185.558 199.73 177.701 186.786L195.725 163.872H214.311V186.887V188.556L215.343 187.244L245.758 148.578H264.225Z" stroke="url(#paint8_radial_306_23202)" stroke-width="1.15597"/>
<path fill-rule="evenodd" clip-rule="evenodd" d="M252.642 145.384H235.923L209.463 179.023V158.614H192.642L176.687 178.899C183.531 190.402 196.095 198.152 210.381 198.152H213.469C235.015 198.152 252.642 180.525 252.642 158.979V145.384H252.642Z" fill="url(#paint9_linear_306_23202)"/>
<path fill-rule="evenodd" clip-rule="evenodd" d="M219.103 124.978V158.618H192.643L219.103 124.978Z" fill="white"/>
<path fill-rule="evenodd" clip-rule="evenodd" d="M209.461 179.023V145.384H235.922L209.461 179.023Z" fill="white"/>
<path d="M144.206 258.131C142.749 258.131 141.463 257.721 140.347 256.9C139.232 256.078 138.449 254.916 138 253.413L140.952 252.251C141.184 253.134 141.579 253.839 142.137 254.366C142.695 254.893 143.392 255.156 144.229 255.156C144.926 255.156 145.523 254.986 146.019 254.645C146.515 254.289 146.762 253.801 146.762 253.181C146.762 252.561 146.522 252.057 146.042 251.67C145.577 251.267 144.74 250.841 143.532 250.392L142.509 250.02C141.44 249.648 140.526 249.082 139.766 248.323C139.007 247.548 138.628 246.58 138.628 245.418C138.628 244.55 138.852 243.76 139.302 243.047C139.751 242.334 140.386 241.777 141.207 241.374C142.029 240.955 142.958 240.746 143.997 240.746C145.5 240.746 146.685 241.102 147.553 241.815C148.42 242.513 149.017 243.334 149.342 244.279L146.576 245.441C146.406 244.93 146.104 244.504 145.67 244.163C145.252 243.806 144.709 243.628 144.043 243.628C143.361 243.628 142.796 243.791 142.346 244.116C141.912 244.426 141.696 244.837 141.696 245.348C141.696 245.844 141.905 246.27 142.323 246.626C142.741 246.967 143.431 247.3 144.392 247.626L145.438 247.975C146.879 248.47 147.979 249.129 148.738 249.95C149.513 250.756 149.9 251.817 149.9 253.134C149.9 254.219 149.621 255.141 149.063 255.9C148.506 256.644 147.785 257.202 146.902 257.574C146.034 257.946 145.135 258.131 144.206 258.131Z" fill="white"/>
<path d="M156.678 250.02L151.076 241.118H154.818L158.142 246.626H158.328L161.535 241.118H165.324L159.815 250.02V257.76H156.678V250.02Z" fill="white"/>
<path d="M168.011 241.118H171.66L178.354 252.274H178.539L178.354 249.067V241.118H181.468V257.76H178.168L171.102 245.976H170.916L171.102 249.183V257.76H168.011V241.118Z" fill="white"/>
<path d="M185.726 241.118H196.278V244.093H188.863V247.951H195.534V250.926H188.863V254.785H196.278V257.76H185.726V241.118Z" fill="white"/>
<path d="M199.968 241.118H206.034C207.119 241.118 208.08 241.343 208.916 241.792C209.769 242.241 210.427 242.869 210.892 243.675C211.357 244.465 211.589 245.364 211.589 246.371C211.589 247.44 211.248 248.393 210.567 249.23C209.9 250.051 209.056 250.647 208.033 251.019L208.01 251.182L212.473 257.574V257.76H208.87L204.57 251.507H203.106V257.76H199.968V241.118ZM206.011 248.625C206.724 248.625 207.305 248.408 207.754 247.975C208.204 247.541 208.428 246.991 208.428 246.324C208.428 245.689 208.211 245.147 207.778 244.697C207.359 244.248 206.786 244.023 206.058 244.023H203.106V248.625H206.011Z" fill="white"/>
<path d="M223.113 258.131C221.517 258.131 220.045 257.76 218.697 257.016C217.364 256.257 216.303 255.218 215.512 253.901C214.722 252.569 214.327 251.081 214.327 249.439C214.327 247.796 214.722 246.317 215.512 244.999C216.303 243.667 217.364 242.629 218.697 241.885C220.045 241.126 221.517 240.746 223.113 240.746C224.414 240.746 225.6 240.979 226.669 241.443C227.754 241.893 228.683 242.536 229.458 243.372L227.296 245.488C226.739 244.899 226.119 244.457 225.437 244.163C224.771 243.868 223.988 243.721 223.09 243.721C222.067 243.721 221.129 243.961 220.277 244.442C219.425 244.907 218.743 245.581 218.232 246.464C217.736 247.331 217.488 248.323 217.488 249.439C217.488 250.554 217.744 251.554 218.255 252.437C218.766 253.305 219.448 253.979 220.3 254.459C221.168 254.924 222.113 255.156 223.136 255.156C224.685 255.156 225.956 254.699 226.948 253.785C227.258 253.506 227.529 253.15 227.761 252.716C227.994 252.282 228.164 251.81 228.273 251.298H223.043V248.625H231.201C231.31 249.059 231.364 249.547 231.364 250.09C231.364 251.19 231.193 252.212 230.853 253.158C230.527 254.103 230.024 254.932 229.342 255.645C228.598 256.45 227.699 257.07 226.646 257.504C225.592 257.922 224.414 258.131 223.113 258.131Z" fill="white"/>
<path d="M237.945 250.02L232.343 241.118H236.085L239.409 246.626H239.595L242.802 241.118H246.591L241.082 250.02V257.76H237.945V250.02Z" fill="white"/>
<path d="M248.202 257.855C247.83 257.855 247.51 257.726 247.241 257.467C246.983 257.199 246.854 256.879 246.854 256.507C246.854 256.135 246.983 255.82 247.241 255.561C247.51 255.303 247.83 255.174 248.202 255.174C248.574 255.174 248.889 255.303 249.147 255.561C249.416 255.82 249.55 256.135 249.55 256.507C249.55 256.879 249.416 257.199 249.147 257.467C248.889 257.726 248.574 257.855 248.202 257.855Z" fill="white"/>
<path d="M254.78 258.01C253.83 258.01 253.014 257.741 252.332 257.204C251.65 256.656 251.222 255.877 251.046 254.864L253.045 254.058C253.097 254.637 253.293 255.112 253.634 255.484C253.975 255.846 254.434 256.026 255.013 256.026C255.55 256.026 255.999 255.892 256.361 255.623C256.733 255.355 256.919 254.998 256.919 254.554C256.919 254.172 256.784 253.852 256.516 253.594C256.247 253.335 255.787 253.077 255.137 252.819L254.594 252.602C253.923 252.344 253.375 251.977 252.952 251.502C252.528 251.016 252.317 250.402 252.317 249.658C252.317 249.048 252.487 248.496 252.828 248C253.179 247.504 253.654 247.117 254.253 246.838C254.853 246.559 255.519 246.419 256.252 246.419C256.955 246.419 257.549 246.543 258.034 246.791C258.52 247.029 258.886 247.328 259.134 247.69C259.393 248.052 259.558 248.418 259.63 248.79L257.709 249.518C257.626 249.157 257.445 248.873 257.167 248.666C256.898 248.449 256.526 248.341 256.051 248.341C255.596 248.341 255.209 248.454 254.889 248.682C254.569 248.899 254.408 249.198 254.408 249.58C254.408 249.911 254.527 250.19 254.765 250.417C255.013 250.644 255.41 250.856 255.958 251.052L256.593 251.285C257.378 251.584 257.977 251.977 258.391 252.462C258.814 252.948 259.026 253.568 259.026 254.322C259.026 255.035 258.845 255.67 258.484 256.228C258.132 256.786 257.637 257.225 256.996 257.545C256.356 257.855 255.617 258.01 254.78 258.01Z" fill="white"/>
<path d="M264.648 258.01C263.925 258.01 263.279 257.86 262.711 257.56C262.153 257.25 261.72 256.822 261.41 256.274C261.1 255.716 260.945 255.076 260.945 254.353C260.945 253.981 260.991 253.547 261.084 253.051L262.2 246.667H264.292L263.099 253.408C263.057 253.666 263.037 253.909 263.037 254.136C263.037 254.725 263.192 255.19 263.502 255.53C263.822 255.861 264.297 256.026 264.927 256.026C265.619 256.026 266.193 255.799 266.647 255.345C267.112 254.88 267.411 254.255 267.546 253.47L268.739 246.667H270.831L269.607 253.594C269.348 255.06 268.791 256.166 267.933 256.91C267.086 257.643 265.991 258.01 264.648 258.01Z" fill="white"/>
<path d="M273.145 246.667H276.786C277.478 246.667 278.093 246.807 278.63 247.086C279.167 247.354 279.58 247.726 279.869 248.201C280.169 248.666 280.319 249.183 280.319 249.751C280.319 250.36 280.19 250.918 279.931 251.424C279.673 251.92 279.322 252.333 278.878 252.664C278.434 252.994 277.943 253.222 277.406 253.346L277.359 253.454L279.529 257.638L279.513 257.762H277.235L275.097 253.594H273.997L273.253 257.762H271.177L273.145 246.667ZM276.275 251.672C276.853 251.672 277.318 251.528 277.669 251.238C278.031 250.939 278.212 250.51 278.212 249.952C278.212 249.549 278.072 249.224 277.793 248.976C277.525 248.728 277.163 248.604 276.709 248.604H274.88L274.338 251.672H276.275Z" fill="white"/>
<path d="M282.965 246.667H290L289.644 248.651H284.701L284.22 251.347H288.667L288.326 253.33H283.864L283.074 257.762H280.997L282.965 246.667Z" fill="white"/>
</g>
<defs>
<filter id="filter0_f_306_23202" x="25.9248" y="-44.1528" width="376.718" height="392.305" filterUnits="userSpaceOnUse" color-interpolation-filters="sRGB">
<feFlood flood-opacity="0" result="BackgroundImageFix"/>
<feBlend mode="normal" in="SourceGraphic" in2="BackgroundImageFix" result="shape"/>
<feGaussianBlur stdDeviation="75" result="effect1_foregroundBlur_306_23202"/>
</filter>
<filter id="filter1_f_306_23202" x="75.9248" y="5.84717" width="276.718" height="292.305" filterUnits="userSpaceOnUse" color-interpolation-filters="sRGB">
<feFlood flood-opacity="0" result="BackgroundImageFix"/>
<feBlend mode="normal" in="SourceGraphic" in2="BackgroundImageFix" result="shape"/>
<feGaussianBlur stdDeviation="50" result="effect1_foregroundBlur_306_23202"/>
</filter>
<filter id="filter2_f_306_23202" x="125.925" y="55.8472" width="176.718" height="192.305" filterUnits="userSpaceOnUse" color-interpolation-filters="sRGB">
<feFlood flood-opacity="0" result="BackgroundImageFix"/>
<feBlend mode="normal" in="SourceGraphic" in2="BackgroundImageFix" result="shape"/>
<feGaussianBlur stdDeviation="25" result="effect1_foregroundBlur_306_23202"/>
</filter>
<linearGradient id="paint0_linear_306_23202" x1="175.925" y1="132.232" x2="251.881" y2="132.232" gradientUnits="userSpaceOnUse">
<stop stop-color="#FF512F"/>
<stop offset="1" stop-color="#F09819"/>
</linearGradient>
<linearGradient id="paint1_linear_306_23202" x1="252.642" y1="172.248" x2="176.687" y2="172.248" gradientUnits="userSpaceOnUse">
<stop stop-color="#00AACE"/>
<stop offset="1" stop-color="#006BCE"/>
</linearGradient>
<linearGradient id="paint2_linear_306_23202" x1="175.925" y1="132.232" x2="251.881" y2="132.232" gradientUnits="userSpaceOnUse">
<stop stop-color="#FF512F"/>
<stop offset="1" stop-color="#F09819"/>
</linearGradient>
<linearGradient id="paint3_linear_306_23202" x1="252.642" y1="172.248" x2="176.687" y2="172.248" gradientUnits="userSpaceOnUse">
<stop stop-color="#00AACE"/>
<stop offset="1" stop-color="#006BCE"/>
</linearGradient>
<linearGradient id="paint4_linear_306_23202" x1="175.925" y1="132.232" x2="251.881" y2="132.232" gradientUnits="userSpaceOnUse">
<stop stop-color="#FF512F"/>
<stop offset="1" stop-color="#F09819"/>
</linearGradient>
<linearGradient id="paint5_linear_306_23202" x1="252.642" y1="172.248" x2="176.687" y2="172.248" gradientUnits="userSpaceOnUse">
<stop stop-color="#00AACE"/>
<stop offset="1" stop-color="#006BCE"/>
</linearGradient>
<linearGradient id="paint6_linear_306_23202" x1="175.925" y1="132.232" x2="251.881" y2="132.232" gradientUnits="userSpaceOnUse">
<stop stop-color="#FF512F"/>
<stop offset="1" stop-color="#F09819"/>
</linearGradient>
<radialGradient id="paint7_radial_306_23202" cx="0" cy="0" r="1" gradientUnits="userSpaceOnUse" gradientTransform="translate(184.23 93.8894) rotate(67.8358) scale(62.7466 90.317)">
<stop stop-color="white"/>
<stop offset="0.47372" stop-color="white" stop-opacity="0"/>
</radialGradient>
<radialGradient id="paint8_radial_306_23202" cx="0" cy="0" r="1" gradientUnits="userSpaceOnUse" gradientTransform="translate(244.573 206.11) rotate(-112.164) scale(62.7466 90.317)">
<stop stop-color="white"/>
<stop offset="0.47372" stop-color="white" stop-opacity="0"/>
</radialGradient>
<linearGradient id="paint9_linear_306_23202" x1="252.642" y1="172.248" x2="176.687" y2="172.248" gradientUnits="userSpaceOnUse">
<stop stop-color="#00AACE"/>
<stop offset="1" stop-color="#006BCE"/>
</linearGradient>
<clipPath id="clip0_306_23202">
<rect width="428" height="350" fill="white"/>
</clipPath>
</defs>
</svg>
